<svg width="14" height="10" viewBox="0 0 14 10" fill="none" xmlns="http://www.w3.org/2000/svg">
<path d="M1.37511 4.99992C1.37511 3.57492 2.34039 2.41658 3.52789 2.41658H6.30567V0.833252H3.52789C1.61122 0.833252 0.0556641 2.69992 0.0556641 4.99992C0.0556641 7.29992 1.61122 9.16658 3.52789 9.16658H6.30567V7.58325H3.52789C2.34039 7.58325 1.37511 6.42492 1.37511 4.99992ZM4.22233 5.83325H9.77789V4.16659H4.22233V5.83325ZM10.4723 0.833252H7.69455V2.41658H10.4723C11.6598 2.41658 12.6251 3.57492 12.6251 4.99992C12.6251 6.42492 11.6598 7.58325 10.4723 7.58325H7.69455V9.16658H10.4723C12.389 9.16658 13.9446 7.29992 13.9446 4.99992C13.9446 2.69992 12.389 0.833252 10.4723 0.833252Z" fill="#84818A"/>
</svg>
