<svg width="19" height="18" viewBox="0 0 19 18" fill="none" xmlns="http://www.w3.org/2000/svg">
<path d="M13.3799 11H12.5899L12.3099 10.73C13.2899 9.59 13.8799 8.11 13.8799 6.5C13.8799 2.91 10.9699 0 7.37988 0C3.78988 0 0.879883 2.91 0.879883 6.5C0.879883 10.09 3.78988 13 7.37988 13C8.98988 13 10.4699 12.41 11.6099 11.43L11.8799 11.71V12.5L16.8799 17.49L18.3699 16L13.3799 11ZM7.37988 11C4.88988 11 2.87988 8.99 2.87988 6.5C2.87988 4.01 4.88988 2 7.37988 2C9.86988 2 11.8799 4.01 11.8799 6.5C11.8799 8.99 9.86988 11 7.37988 11Z" fill="#84818A"/>
</svg>
