<svg width="18" height="18" viewBox="0 0 18 18" fill="none" xmlns="http://www.w3.org/2000/svg">
<path d="M8.99984 0.666748C4.39984 0.666748 0.666504 4.40008 0.666504 9.00008C0.666504 13.6001 4.39984 17.3334 8.99984 17.3334C13.5998 17.3334 17.3332 13.6001 17.3332 9.00008C17.3332 4.40008 13.5998 0.666748 8.99984 0.666748ZM8.99984 3.16675C10.3832 3.16675 11.4998 4.28341 11.4998 5.66675C11.4998 7.05008 10.3832 8.16675 8.99984 8.16675C7.6165 8.16675 6.49984 7.05008 6.49984 5.66675C6.49984 4.28341 7.6165 3.16675 8.99984 3.16675ZM8.99984 15.0001C6.9165 15.0001 5.07484 13.9334 3.99984 12.3167C4.02484 10.6584 7.33317 9.75008 8.99984 9.75008C10.6582 9.75008 13.9748 10.6584 13.9998 12.3167C12.9248 13.9334 11.0832 15.0001 8.99984 15.0001Z" fill="#1A1B41"/>
</svg>
