<svg width="14" height="10" viewBox="0 0 14 10" fill="none" xmlns="http://www.w3.org/2000/svg">
<path d="M7.00016 0.625C4.0835 0.625 1.59266 2.43917 0.583496 5C1.59266 7.56083 4.0835 9.375 7.00016 9.375C9.91683 9.375 12.4077 7.56083 13.4168 5C12.4077 2.43917 9.91683 0.625 7.00016 0.625ZM7.00016 7.91667C5.39016 7.91667 4.0835 6.61 4.0835 5C4.0835 3.39 5.39016 2.08333 7.00016 2.08333C8.61016 2.08333 9.91683 3.39 9.91683 5C9.91683 6.61 8.61016 7.91667 7.00016 7.91667ZM7.00016 3.25C6.03183 3.25 5.25016 4.03167 5.25016 5C5.25016 5.96833 6.03183 6.75 7.00016 6.75C7.9685 6.75 8.75016 5.96833 8.75016 5C8.75016 4.03167 7.9685 3.25 7.00016 3.25Z" fill="#84818A"/>
</svg>
