<svg width="14" height="19" viewBox="0 0 14 19" fill="none" xmlns="http://www.w3.org/2000/svg">
<path d="M12.0002 6.66658H11.1668V4.99992C11.1668 2.69992 9.30016 0.833252 7.00016 0.833252C4.70016 0.833252 2.8335 2.69992 2.8335 4.99992V6.66658H2.00016C1.0835 6.66658 0.333496 7.41658 0.333496 8.33325V16.6666C0.333496 17.5833 1.0835 18.3333 2.00016 18.3333H12.0002C12.9168 18.3333 13.6668 17.5833 13.6668 16.6666V8.33325C13.6668 7.41658 12.9168 6.66658 12.0002 6.66658ZM7.00016 14.1666C6.0835 14.1666 5.3335 13.4166 5.3335 12.4999C5.3335 11.5833 6.0835 10.8333 7.00016 10.8333C7.91683 10.8333 8.66683 11.5833 8.66683 12.4999C8.66683 13.4166 7.91683 14.1666 7.00016 14.1666ZM9.5835 6.66658H4.41683V4.99992C4.41683 3.57492 5.57516 2.41659 7.00016 2.41659C8.42516 2.41659 9.5835 3.57492 9.5835 4.99992V6.66658Z" fill="#504F54"/>
</svg>
