<svg width="3" height="12" viewBox="0 0 3 12" fill="none" xmlns="http://www.w3.org/2000/svg">
<path d="M1.46816 3.33341C2.11653 3.33341 2.64701 2.73341 2.64701 2.00008C2.64701 1.26675 2.11653 0.666748 1.46816 0.666748C0.819791 0.666748 0.289307 1.26675 0.289307 2.00008C0.289307 2.73341 0.819791 3.33341 1.46816 3.33341ZM1.46816 4.66675C0.819791 4.66675 0.289307 5.26675 0.289307 6.00008C0.289307 6.73341 0.819791 7.33341 1.46816 7.33341C2.11653 7.33341 2.64701 6.73341 2.64701 6.00008C2.64701 5.26675 2.11653 4.66675 1.46816 4.66675ZM1.46816 8.66675C0.819791 8.66675 0.289307 9.26675 0.289307 10.0001C0.289307 10.7334 0.819791 11.3334 1.46816 11.3334C2.11653 11.3334 2.64701 10.7334 2.64701 10.0001C2.64701 9.26675 2.11653 8.66675 1.46816 8.66675Z" fill="#84818A"/>
</svg>
