<svg width="17" height="18" viewBox="0 0 17 18" fill="none" xmlns="http://www.w3.org/2000/svg">
<path d="M14.2365 0.75H2.91066C1.79425 0.75 0.888184 1.52 0.888184 2.46875V15.5312C0.888184 16.48 1.79425 17.25 2.91066 17.25H14.2365C15.3529 17.25 16.259 16.48 16.259 15.5312V2.46875C16.259 1.52 15.3529 0.75 14.2365 0.75ZM8.57358 16.5625C7.90211 16.5625 7.36009 16.1019 7.36009 15.5312C7.36009 14.9606 7.90211 14.5 8.57358 14.5C9.24504 14.5 9.78706 14.9606 9.78706 15.5312C9.78706 16.1019 9.24504 16.5625 8.57358 16.5625ZM14.641 13.8125H2.50616V2.8125H14.641V13.8125Z" fill="#B6B4BA"/>
</svg>
