<svg width="85" height="39" viewBox="0 0 85 39" fill="none" xmlns="http://www.w3.org/2000/svg">
<path d="M36.096 24.48C34.3467 24.48 32.8107 24.1013 31.488 23.344C30.1653 22.5867 29.1307 21.536 28.384 20.192C27.648 18.848 27.28 17.3013 27.28 15.552C27.28 13.664 27.6427 12.0267 28.368 10.64C29.0933 9.2427 30.1013 8.16 31.392 7.392C32.6827 6.624 34.176 6.24 35.872 6.24C37.664 6.24 39.184 6.6613 40.432 7.504C41.6907 8.336 42.624 9.5147 43.232 11.04C43.84 12.5653 44.0693 14.3627 43.92 16.432H40.096V15.024C40.0853 13.1467 39.7547 11.776 39.104 10.912C38.4533 10.048 37.4293 9.616 36.032 9.616C34.4533 9.616 33.28 10.1067 32.512 11.088C31.744 12.0587 31.36 13.4827 31.36 15.36C31.36 17.1093 31.744 18.464 32.512 19.424C33.28 20.384 34.4 20.864 35.872 20.864C36.8213 20.864 37.6373 20.656 38.32 20.24C39.0133 19.8133 39.5467 19.2 39.92 18.4L43.728 19.552C43.0667 21.1093 42.0427 22.32 40.656 23.184C39.28 24.048 37.76 24.48 36.096 24.48ZM30.144 16.432V13.52H42.032V16.432H30.144Z" fill="#1A1B41"/>
<path d="M58.9732 24V15.68C58.9732 15.136 58.9359 14.5333 58.8612 13.872C58.7866 13.2107 58.6106 12.576 58.3333 11.968C58.0666 11.3493 57.6612 10.8427 57.1172 10.448C56.5839 10.0533 55.8586 9.856 54.9412 9.856C54.4506 9.856 53.9652 9.936 53.4852 10.096C53.0052 10.256 52.5679 10.5333 52.1732 10.928C51.7892 11.312 51.4799 11.8453 51.2452 12.528C51.0106 13.2 50.8932 14.064 50.8932 15.12L48.6052 14.144C48.6052 12.672 48.8879 11.3387 49.4532 10.144C50.0292 8.9493 50.8719 8 51.9812 7.296C53.0906 6.5813 54.4559 6.224 56.0772 6.224C57.3572 6.224 58.4132 6.4373 59.2452 6.864C60.0772 7.2907 60.7386 7.8347 61.2292 8.496C61.7199 9.1573 62.0826 9.8613 62.3173 10.608C62.5519 11.3547 62.7013 12.064 62.7653 12.736C62.8399 13.3973 62.8773 13.936 62.8773 14.352V24H58.9732ZM46.9892 24V6.72H50.4292V12.08H50.8932V24H46.9892Z" fill="#1A1B41"/>
<path d="M68.5565 24V6.448C68.5565 6.0107 68.5725 5.53067 68.6045 5.008C68.6365 4.47467 68.7272 3.94667 68.8765 3.424C69.0258 2.90133 69.2978 2.42667 69.6925 2C70.1832 1.456 70.7112 1.08267 71.2765 0.88C71.8525 0.66667 72.4178 0.549329 72.9725 0.527999C73.5272 0.495999 74.0125 0.48 74.4285 0.48H76.5885V3.616H74.5885C73.8525 3.616 73.3032 3.80267 72.9405 4.176C72.5885 4.53867 72.4125 5.01867 72.4125 5.616V24H68.5565ZM65.7725 9.744V6.72H76.5885V9.744H65.7725ZM79.9485 4.096V0.559999H83.8045V4.096H79.9485ZM79.9485 24V6.72H83.8045V24H79.9485Z" fill="#1A1B41"/>
<path d="M56.235 38.25C55.155 38.25 54.2225 38.015 53.4375 37.545C52.6575 37.075 52.055 36.4175 51.63 35.5725C51.21 34.7275 51 33.745 51 32.625C51 31.505 51.21 30.5225 51.63 29.6775C52.055 28.8325 52.6575 28.175 53.4375 27.705C54.2225 27.235 55.155 27 56.235 27C57.475 27 58.515 27.3075 59.355 27.9225C60.2 28.5375 60.795 29.37 61.14 30.42L59.085 30.99C58.885 30.335 58.5475 29.8275 58.0725 29.4675C57.5975 29.1025 56.985 28.92 56.235 28.92C55.55 28.92 54.9775 29.0725 54.5175 29.3775C54.0625 29.6825 53.72 30.1125 53.49 30.6675C53.26 31.2225 53.145 31.875 53.145 32.625C53.145 33.375 53.26 34.0275 53.49 34.5825C53.72 35.1375 54.0625 35.5675 54.5175 35.8725C54.9775 36.1775 55.55 36.33 56.235 36.33C56.985 36.33 57.5975 36.1475 58.0725 35.7825C58.5475 35.4175 58.885 34.91 59.085 34.26L61.14 34.83C60.795 35.88 60.2 36.7125 59.355 37.3275C58.515 37.9425 57.475 38.25 56.235 38.25Z" fill="#007BFF"/>
<path d="M62.7914 38.025V27.225H64.6214L68.1914 34.395L71.7614 27.225H73.5914V38.025H71.6864V31.575L68.5514 38.025H67.8314L64.6964 31.575V38.025H62.7914Z" fill="#007BFF"/>
<path d="M79.7767 38.25C78.9767 38.25 78.2542 38.11 77.6092 37.83C76.9692 37.545 76.4417 37.14 76.0267 36.615C75.6167 36.085 75.3567 35.455 75.2467 34.725L77.3767 34.41C77.5267 35.03 77.8367 35.5075 78.3067 35.8425C78.7767 36.1775 79.3117 36.345 79.9117 36.345C80.2467 36.345 80.5717 36.2925 80.8867 36.1875C81.2017 36.0825 81.4592 35.9275 81.6592 35.7225C81.8642 35.5175 81.9667 35.265 81.9667 34.965C81.9667 34.855 81.9492 34.75 81.9142 34.65C81.8842 34.545 81.8317 34.4475 81.7567 34.3575C81.6817 34.2675 81.5742 34.1825 81.4342 34.1025C81.2992 34.0225 81.1267 33.95 80.9167 33.885L78.1117 33.06C77.9017 33 77.6567 32.915 77.3767 32.805C77.1017 32.695 76.8342 32.5375 76.5742 32.3325C76.3142 32.1275 76.0967 31.8575 75.9217 31.5225C75.7517 31.1825 75.6667 30.755 75.6667 30.24C75.6667 29.515 75.8492 28.9125 76.2142 28.4325C76.5792 27.9525 77.0667 27.595 77.6767 27.36C78.2867 27.125 78.9617 27.01 79.7017 27.015C80.4467 27.025 81.1117 27.1525 81.6967 27.3975C82.2817 27.6425 82.7717 28 83.1667 28.47C83.5617 28.935 83.8467 29.505 84.0217 30.18L81.8167 30.555C81.7367 30.205 81.5892 29.91 81.3742 29.67C81.1592 29.43 80.9017 29.2475 80.6017 29.1225C80.3067 28.9975 79.9967 28.93 79.6717 28.92C79.3517 28.91 79.0492 28.955 78.7642 29.055C78.4842 29.15 78.2542 29.29 78.0742 29.475C77.8992 29.66 77.8117 29.88 77.8117 30.135C77.8117 30.37 77.8842 30.5625 78.0292 30.7125C78.1742 30.8575 78.3567 30.975 78.5767 31.065C78.7967 31.155 79.0217 31.23 79.2517 31.29L81.1267 31.8C81.4067 31.875 81.7167 31.975 82.0567 32.1C82.3967 32.22 82.7217 32.39 83.0317 32.61C83.3467 32.825 83.6042 33.11 83.8042 33.465C84.0092 33.82 84.1117 34.27 84.1117 34.815C84.1117 35.395 83.9892 35.9025 83.7442 36.3375C83.5042 36.7675 83.1792 37.125 82.7692 37.41C82.3592 37.69 81.8942 37.9 81.3742 38.04C80.8592 38.18 80.3267 38.25 79.7767 38.25Z" fill="#007BFF"/>
<path d="M0 37.56V36.768L17.64 7.728H0.959996V3H26.256V3.816L8.712 32.808H25.944V37.56H0Z" fill="#1A1B41"/>
</svg>
