<svg width="85" height="45" viewBox="0 0 85 45" fill="none" xmlns="http://www.w3.org/2000/svg">
<path d="M36.096 28.48C34.3467 28.48 32.8107 28.1013 31.488 27.344C30.1653 26.5867 29.1307 25.536 28.384 24.192C27.648 22.848 27.28 21.3013 27.28 19.552C27.28 17.664 27.6427 16.0267 28.368 14.64C29.0933 13.2427 30.1013 12.16 31.392 11.392C32.6827 10.624 34.176 10.24 35.872 10.24C37.664 10.24 39.184 10.6613 40.432 11.504C41.6907 12.336 42.624 13.5147 43.232 15.04C43.84 16.5653 44.0693 18.3627 43.92 20.432H40.096V19.024C40.0853 17.1467 39.7547 15.776 39.104 14.912C38.4533 14.048 37.4293 13.616 36.032 13.616C34.4533 13.616 33.28 14.1067 32.512 15.088C31.744 16.0587 31.36 17.4827 31.36 19.36C31.36 21.1093 31.744 22.464 32.512 23.424C33.28 24.384 34.4 24.864 35.872 24.864C36.8213 24.864 37.6373 24.656 38.32 24.24C39.0133 23.8133 39.5467 23.2 39.92 22.4L43.728 23.552C43.0667 25.1093 42.0427 26.32 40.656 27.184C39.28 28.048 37.76 28.48 36.096 28.48ZM30.144 20.432V17.52H42.032V20.432H30.144Z" fill="#1A1B41"/>
<path d="M58.9732 28V19.68C58.9732 19.136 58.9359 18.5333 58.8612 17.872C58.7866 17.2107 58.6106 16.576 58.3333 15.968C58.0666 15.3493 57.6612 14.8427 57.1172 14.448C56.5839 14.0533 55.8586 13.856 54.9412 13.856C54.4506 13.856 53.9652 13.936 53.4852 14.096C53.0052 14.256 52.5679 14.5333 52.1732 14.928C51.7892 15.312 51.4799 15.8453 51.2452 16.528C51.0106 17.2 50.8932 18.064 50.8932 19.12L48.6052 18.144C48.6052 16.672 48.8879 15.3387 49.4532 14.144C50.0292 12.9493 50.8719 12 51.9812 11.296C53.0906 10.5813 54.4559 10.224 56.0772 10.224C57.3572 10.224 58.4132 10.4373 59.2452 10.864C60.0772 11.2907 60.7386 11.8347 61.2292 12.496C61.7199 13.1573 62.0826 13.8613 62.3173 14.608C62.5519 15.3547 62.7013 16.064 62.7653 16.736C62.8399 17.3973 62.8773 17.936 62.8773 18.352V28H58.9732ZM46.9892 28V10.72H50.4292V16.08H50.8932V28H46.9892Z" fill="#1A1B41"/>
<path d="M68.5565 28V10.448C68.5565 10.0107 68.5725 9.53067 68.6045 9.008C68.6365 8.47467 68.7272 7.94667 68.8765 7.424C69.0258 6.90133 69.2978 6.42667 69.6925 6C70.1832 5.456 70.7112 5.08267 71.2765 4.88C71.8525 4.66667 72.4178 4.54933 72.9725 4.528C73.5272 4.496 74.0125 4.48 74.4285 4.48H76.5885V7.616H74.5885C73.8525 7.616 73.3032 7.80267 72.9405 8.176C72.5885 8.53867 72.4125 9.01867 72.4125 9.616V28H68.5565ZM65.7725 13.744V10.72H76.5885V13.744H65.7725ZM79.9485 8.096V4.56H83.8045V8.096H79.9485ZM79.9485 28V10.72H83.8045V28H79.9485Z" fill="#1A1B41"/>
<path d="M56.235 42.25C55.155 42.25 54.2225 42.015 53.4375 41.545C52.6575 41.075 52.055 40.4175 51.63 39.5725C51.21 38.7275 51 37.745 51 36.625C51 35.505 51.21 34.5225 51.63 33.6775C52.055 32.8325 52.6575 32.175 53.4375 31.705C54.2225 31.235 55.155 31 56.235 31C57.475 31 58.515 31.3075 59.355 31.9225C60.2 32.5375 60.795 33.37 61.14 34.42L59.085 34.99C58.885 34.335 58.5475 33.8275 58.0725 33.4675C57.5975 33.1025 56.985 32.92 56.235 32.92C55.55 32.92 54.9775 33.0725 54.5175 33.3775C54.0625 33.6825 53.72 34.1125 53.49 34.6675C53.26 35.2225 53.145 35.875 53.145 36.625C53.145 37.375 53.26 38.0275 53.49 38.5825C53.72 39.1375 54.0625 39.5675 54.5175 39.8725C54.9775 40.1775 55.55 40.33 56.235 40.33C56.985 40.33 57.5975 40.1475 58.0725 39.7825C58.5475 39.4175 58.885 38.91 59.085 38.26L61.14 38.83C60.795 39.88 60.2 40.7125 59.355 41.3275C58.515 41.9425 57.475 42.25 56.235 42.25Z" fill="#EB6C1A"/>
<path d="M62.7914 42.025V31.225H64.6214L68.1914 38.395L71.7614 31.225H73.5914V42.025H71.6864V35.575L68.5514 42.025H67.8314L64.6964 35.575V42.025H62.7914Z" fill="#EB6C1A"/>
<path d="M79.7767 42.25C78.9767 42.25 78.2542 42.11 77.6092 41.83C76.9692 41.545 76.4417 41.14 76.0267 40.615C75.6167 40.085 75.3567 39.455 75.2467 38.725L77.3767 38.41C77.5267 39.03 77.8367 39.5075 78.3067 39.8425C78.7767 40.1775 79.3117 40.345 79.9117 40.345C80.2467 40.345 80.5717 40.2925 80.8867 40.1875C81.2017 40.0825 81.4592 39.9275 81.6592 39.7225C81.8642 39.5175 81.9667 39.265 81.9667 38.965C81.9667 38.855 81.9492 38.75 81.9142 38.65C81.8842 38.545 81.8317 38.4475 81.7567 38.3575C81.6817 38.2675 81.5742 38.1825 81.4342 38.1025C81.2992 38.0225 81.1267 37.95 80.9167 37.885L78.1117 37.06C77.9017 37 77.6567 36.915 77.3767 36.805C77.1017 36.695 76.8342 36.5375 76.5742 36.3325C76.3142 36.1275 76.0967 35.8575 75.9217 35.5225C75.7517 35.1825 75.6667 34.755 75.6667 34.24C75.6667 33.515 75.8492 32.9125 76.2142 32.4325C76.5792 31.9525 77.0667 31.595 77.6767 31.36C78.2867 31.125 78.9617 31.01 79.7017 31.015C80.4467 31.025 81.1117 31.1525 81.6967 31.3975C82.2817 31.6425 82.7717 32 83.1667 32.47C83.5617 32.935 83.8467 33.505 84.0217 34.18L81.8167 34.555C81.7367 34.205 81.5892 33.91 81.3742 33.67C81.1592 33.43 80.9017 33.2475 80.6017 33.1225C80.3067 32.9975 79.9967 32.93 79.6717 32.92C79.3517 32.91 79.0492 32.955 78.7642 33.055C78.4842 33.15 78.2542 33.29 78.0742 33.475C77.8992 33.66 77.8117 33.88 77.8117 34.135C77.8117 34.37 77.8842 34.5625 78.0292 34.7125C78.1742 34.8575 78.3567 34.975 78.5767 35.065C78.7967 35.155 79.0217 35.23 79.2517 35.29L81.1267 35.8C81.4067 35.875 81.7167 35.975 82.0567 36.1C82.3967 36.22 82.7217 36.39 83.0317 36.61C83.3467 36.825 83.6042 37.11 83.8042 37.465C84.0092 37.82 84.1117 38.27 84.1117 38.815C84.1117 39.395 83.9892 39.9025 83.7442 40.3375C83.5042 40.7675 83.1792 41.125 82.7692 41.41C82.3592 41.69 81.8942 41.9 81.3742 42.04C80.8592 42.18 80.3267 42.25 79.7767 42.25Z" fill="#EB6C1A"/>
<path d="M0 41.56V40.768L17.64 11.728H0.959996V7H26.256V7.816L8.712 36.808H25.944V41.56H0Z" fill="#1A1B41"/>
</svg>
