<svg width="85" height="45" viewBox="0 0 85 45" fill="none" xmlns="http://www.w3.org/2000/svg">
<path d="M36.096 28.48C34.3467 28.48 32.8107 28.1013 31.488 27.344C30.1653 26.5867 29.1307 25.536 28.384 24.192C27.648 22.848 27.28 21.3013 27.28 19.552C27.28 17.664 27.6427 16.0267 28.368 14.64C29.0933 13.2427 30.1013 12.16 31.392 11.392C32.6827 10.624 34.176 10.24 35.872 10.24C37.664 10.24 39.184 10.6613 40.432 11.504C41.6907 12.336 42.624 13.5147 43.232 15.04C43.84 16.5653 44.0693 18.3627 43.92 20.432H40.096V19.024C40.0853 17.1467 39.7547 15.776 39.104 14.912C38.4533 14.048 37.4293 13.616 36.032 13.616C34.4533 13.616 33.28 14.1067 32.512 15.088C31.744 16.0587 31.36 17.4827 31.36 19.36C31.36 21.1093 31.744 22.464 32.512 23.424C33.28 24.384 34.4 24.864 35.872 24.864C36.8213 24.864 37.6373 24.656 38.32 24.24C39.0133 23.8133 39.5467 23.2 39.92 22.4L43.728 23.552C43.0667 25.1093 42.0427 26.32 40.656 27.184C39.28 28.048 37.76 28.48 36.096 28.48ZM30.144 20.432V17.52H42.032V20.432H30.144Z" fill="#1A1B41"/>
<path d="M58.9732 28V19.68C58.9732 19.136 58.9359 18.5333 58.8612 17.872C58.7866 17.2107 58.6106 16.576 58.3333 15.968C58.0666 15.3493 57.6612 14.8427 57.1172 14.448C56.5839 14.0533 55.8586 13.856 54.9412 13.856C54.4506 13.856 53.9652 13.936 53.4852 14.096C53.0052 14.256 52.5679 14.5333 52.1732 14.928C51.7892 15.312 51.4799 15.8453 51.2452 16.528C51.0106 17.2 50.8932 18.064 50.8932 19.12L48.6052 18.144C48.6052 16.672 48.8879 15.3387 49.4532 14.144C50.0292 12.9493 50.8719 12 51.9812 11.296C53.0906 10.5813 54.4559 10.224 56.0772 10.224C57.3572 10.224 58.4132 10.4373 59.2452 10.864C60.0772 11.2907 60.7386 11.8347 61.2292 12.496C61.7199 13.1573 62.0826 13.8613 62.3173 14.608C62.5519 15.3547 62.7013 16.064 62.7653 16.736C62.8399 17.3973 62.8773 17.936 62.8773 18.352V28H58.9732ZM46.9892 28V10.72H50.4292V16.08H50.8932V28H46.9892Z" fill="#1A1B41"/>
<path d="M68.5565 28V10.448C68.5565 10.0107 68.5725 9.53067 68.6045 9.008C68.6365 8.47467 68.7272 7.94667 68.8765 7.424C69.0258 6.90133 69.2978 6.42667 69.6925 6C70.1832 5.456 70.7112 5.08267 71.2765 4.88C71.8525 4.66667 72.4178 4.54933 72.9725 4.528C73.5272 4.496 74.0125 4.48 74.4285 4.48H76.5885V7.616H74.5885C73.8525 7.616 73.3032 7.80267 72.9405 8.176C72.5885 8.53867 72.4125 9.01867 72.4125 9.616V28H68.5565ZM65.7725 13.744V10.72H76.5885V13.744H65.7725ZM79.9485 8.096V4.56H83.8045V8.096H79.9485ZM79.9485 28V10.72H83.8045V28H79.9485Z" fill="#1A1B41"/>
<path d="M56.5248 44.225C55.4448 44.225 54.5123 43.99 53.7273 43.52C52.9473 43.05 52.3448 42.3925 51.9198 41.5475C51.4998 40.7025 51.2898 39.72 51.2898 38.6C51.2898 37.48 51.4998 36.4975 51.9198 35.6525C52.3448 34.8075 52.9473 34.15 53.7273 33.68C54.5123 33.21 55.4448 32.975 56.5248 32.975C57.7648 32.975 58.8048 33.2825 59.6448 33.8975C60.4898 34.5125 61.0848 35.345 61.4298 36.395L59.3748 36.965C59.1748 36.31 58.8373 35.8025 58.3623 35.4425C57.8873 35.0775 57.2748 34.895 56.5248 34.895C55.8398 34.895 55.2673 35.0475 54.8073 35.3525C54.3523 35.6575 54.0098 36.0875 53.7798 36.6425C53.5498 37.1975 53.4348 37.85 53.4348 38.6C53.4348 39.35 53.5498 40.0025 53.7798 40.5575C54.0098 41.1125 54.3523 41.5425 54.8073 41.8475C55.2673 42.1525 55.8398 42.305 56.5248 42.305C57.2748 42.305 57.8873 42.1225 58.3623 41.7575C58.8373 41.3925 59.1748 40.885 59.3748 40.235L61.4298 40.805C61.0848 41.855 60.4898 42.6875 59.6448 43.3025C58.8048 43.9175 57.7648 44.225 56.5248 44.225Z" fill="#EB6C1A"/>
<path d="M63.0812 44V33.2H64.9112L68.4812 40.37L72.0512 33.2H73.8812V44H71.9762V37.55L68.8412 44H68.1212L64.9862 37.55V44H63.0812Z" fill="#EB6C1A"/>
<path d="M80.0665 44.225C79.2665 44.225 78.544 44.085 77.899 43.805C77.259 43.52 76.7315 43.115 76.3165 42.59C75.9065 42.06 75.6465 41.43 75.5365 40.7L77.6665 40.385C77.8165 41.005 78.1265 41.4825 78.5965 41.8175C79.0665 42.1525 79.6015 42.32 80.2015 42.32C80.5365 42.32 80.8615 42.2675 81.1765 42.1625C81.4915 42.0575 81.749 41.9025 81.949 41.6975C82.154 41.4925 82.2565 41.24 82.2565 40.94C82.2565 40.83 82.239 40.725 82.204 40.625C82.174 40.52 82.1215 40.4225 82.0465 40.3325C81.9715 40.2425 81.864 40.1575 81.724 40.0775C81.589 39.9975 81.4165 39.925 81.2065 39.86L78.4015 39.035C78.1915 38.975 77.9465 38.89 77.6665 38.78C77.3915 38.67 77.124 38.5125 76.864 38.3075C76.604 38.1025 76.3865 37.8325 76.2115 37.4975C76.0415 37.1575 75.9565 36.73 75.9565 36.215C75.9565 35.49 76.139 34.8875 76.504 34.4075C76.869 33.9275 77.3565 33.57 77.9665 33.335C78.5765 33.1 79.2515 32.985 79.9915 32.99C80.7365 33 81.4015 33.1275 81.9865 33.3725C82.5715 33.6175 83.0615 33.975 83.4565 34.445C83.8515 34.91 84.1365 35.48 84.3115 36.155L82.1065 36.53C82.0265 36.18 81.879 35.885 81.664 35.645C81.449 35.405 81.1915 35.2225 80.8915 35.0975C80.5965 34.9725 80.2865 34.905 79.9615 34.895C79.6415 34.885 79.339 34.93 79.054 35.03C78.774 35.125 78.544 35.265 78.364 35.45C78.189 35.635 78.1015 35.855 78.1015 36.11C78.1015 36.345 78.174 36.5375 78.319 36.6875C78.464 36.8325 78.6465 36.95 78.8665 37.04C79.0865 37.13 79.3115 37.205 79.5415 37.265L81.4165 37.775C81.6965 37.85 82.0065 37.95 82.3465 38.075C82.6865 38.195 83.0115 38.365 83.3215 38.585C83.6365 38.8 83.894 39.085 84.094 39.44C84.299 39.795 84.4015 40.245 84.4015 40.79C84.4015 41.37 84.279 41.8775 84.034 42.3125C83.794 42.7425 83.469 43.1 83.059 43.385C82.649 43.665 82.184 43.875 81.664 44.015C81.149 44.155 80.6165 44.225 80.0665 44.225Z" fill="#EB6C1A"/>
<path d="M0.399994 35V34.208L18.04 5.168H1.35999V0.439999H26.656V1.256L9.11199 30.248H26.344V35H0.399994Z" fill="#1A1B41"/>
</svg>
